{
	"asset":{
		"generator":"Khronos glTF Blender I/O v3.6.27",
		"version":"2.0"
	},
	"extensionsUsed":[
		"KHR_materials_specular",
		"KHR_materials_ior"
	],
	"scene":0,
	"scenes":[
		{
			"name":"Scene",
			"nodes":[
				0,
				1,
				2,
				3
			]
		}
	],
	"nodes":[
		{
			"mesh":0,
			"name":"Base_Aerogenerador_Cylinder007_Mesh.004",
			"rotation":[
				0.7071068286895752,
				0,
				0,
				0.7071068286895752
			],
			"scale":[
				0.06812423467636108,
				0.06812423467636108,
				0.06812423467636108
			]
		},
		{
			"mesh":1,
			"name":"Cabeza_Pivvote_bien_Mesh.007",
			"rotation":[
				0.7071068286895752,
				0,
				0,
				0.7071068286895752
			],
			"scale":[
				0.06812423467636108,
				0.06812423467636108,
				0.06812423467636108
			]
		},
		{
			"mesh":2,
			"name":"Cylinder001_Mesh.005",
			"rotation":[
				0.7071068286895752,
				0,
				0,
				0.7071068286895752
			],
			"scale":[
				0.06812423467636108,
				0.06812423467636108,
				0.06812423467636108
			]
		},
		{
			"mesh":3,
			"name":"Text001_Mesh.006",
			"rotation":[
				0.7071068286895752,
				0,
				0,
				0.7071068286895752
			],
			"scale":[
				0.06812423467636108,
				0.06812423467636108,
				0.06812423467636108
			]
		}
	],
	"materials":[
		{
			"doubleSided":true,
			"extensions":{
				"KHR_materials_specular":{
					"specularColorFactor":[
						2.371357614441398,
						2.371357614441398,
						2.371357614441398
					]
				},
				"KHR_materials_ior":{
					"ior":1.4500000476837158
				}
			},
			"name":"Base_Aero.001",
			"pbrMetallicRoughness":{
				"baseColorFactor":[
					0.3412320017814636,
					0.3058379888534546,
					0.3058379888534546,
					1
				],
				"roughnessFactor":0.47670412063598633
			}
		},
		{
			"doubleSided":true,
			"extensions":{
				"KHR_materials_specular":{
					"specularColorFactor":[
						2.371357614441398,
						2.371357614441398,
						2.371357614441398
					]
				},
				"KHR_materials_ior":{
					"ior":1.4500000476837158
				}
			},
			"name":"Tornillos_base.001",
			"pbrMetallicRoughness":{
				"baseColorFactor":[
					0,
					0,
					0,
					1
				],
				"metallicFactor":0.13030299544334412,
				"roughnessFactor":0.4204968810081482
			}
		},
		{
			"doubleSided":true,
			"extensions":{
				"KHR_materials_specular":{
					"specularColorFactor":[
						2.371357614441398,
						2.371357614441398,
						2.371357614441398
					]
				},
				"KHR_materials_ior":{
					"ior":1.4500000476837158
				}
			},
			"name":"Metal.001",
			"pbrMetallicRoughness":{
				"metallicFactor":0.6939389705657959,
				"roughnessFactor":0.2985492944717407
			}
		},
		{
			"doubleSided":true,
			"extensions":{
				"KHR_materials_specular":{
					"specularColorFactor":[
						2.371357614441398,
						2.371357614441398,
						2.371357614441398
					]
				},
				"KHR_materials_ior":{
					"ior":1.4500000476837158
				}
			},
			"name":"Puerta.001",
			"pbrMetallicRoughness":{
				"roughnessFactor":0.38024967908859253
			}
		},
		{
			"doubleSided":true,
			"extensions":{
				"KHR_materials_specular":{
					"specularColorFactor":[
						2.371357614441398,
						2.371357614441398,
						2.371357614441398
					]
				},
				"KHR_materials_ior":{
					"ior":1.4500000476837158
				}
			},
			"name":"Blanco_Aero.001",
			"pbrMetallicRoughness":{
				"baseColorFactor":[
					0.9526069760322571,
					0.9526069760322571,
					0.9526069760322571,
					1
				],
				"metallicFactor":0.1636359989643097,
				"metallicRoughnessTexture":{
					"index":0
				}
			}
		},
		{
			"doubleSided":true,
			"extensions":{
				"KHR_materials_specular":{
					"specularColorFactor":[
						2.371357614441398,
						2.371357614441398,
						2.371357614441398
					]
				},
				"KHR_materials_ior":{
					"ior":1.4500000476837158
				}
			},
			"name":"Suelo_metal.001",
			"pbrMetallicRoughness":{}
		},
		{
			"doubleSided":true,
			"extensions":{
				"KHR_materials_specular":{
					"specularColorFactor":[
						0,
						0,
						0
					]
				},
				"KHR_materials_ior":{
					"ior":1.4500000476837158
				}
			},
			"name":"Grass.001",
			"pbrMetallicRoughness":{
				"metallicFactor":0,
				"metallicRoughnessTexture":{
					"index":1
				}
			}
		},
		{
			"doubleSided":true,
			"extensions":{
				"KHR_materials_specular":{
					"specularColorFactor":[
						0.6251752194504875,
						0.6251752194504875,
						0.6251752194504875
					]
				},
				"KHR_materials_ior":{
					"ior":1.4500000476837158
				}
			},
			"name":"Material_#235.001",
			"pbrMetallicRoughness":{
				"baseColorFactor":[
					0.10438600182533264,
					0.0603719986975193,
					0.011820999905467033,
					1
				],
				"metallicFactor":0,
				"roughnessFactor":0.37737488746643066
			}
		},
		{
			"doubleSided":true,
			"extensions":{
				"KHR_materials_specular":{
					"specularColorFactor":[
						2.371357614441398,
						2.371357614441398,
						2.371357614441398
					]
				},
				"KHR_materials_ior":{
					"ior":1.4500000476837158
				}
			},
			"name":"02_-_Default.001",
			"pbrMetallicRoughness":{
				"metallicFactor":0.30303001403808594,
				"roughnessFactor":0.21926099061965942
			}
		}
	],
	"meshes":[
		{
			"name":"Base_Aerogenerador_Cylinder007_Mesh.004",
			"primitives":[
				{
					"attributes":{
						"POSITION":0,
						"NORMAL":1,
						"TEXCOORD_0":2
					},
					"indices":3,
					"material":0
				},
				{
					"attributes":{
						"POSITION":4,
						"NORMAL":5,
						"TEXCOORD_0":6
					},
					"indices":7,
					"material":1
				},
				{
					"attributes":{
						"POSITION":8,
						"NORMAL":9,
						"TEXCOORD_0":10
					},
					"indices":11,
					"material":2
				},
				{
					"attributes":{
						"POSITION":12,
						"NORMAL":13,
						"TEXCOORD_0":14
					},
					"indices":15,
					"material":3
				},
				{
					"attributes":{
						"POSITION":16,
						"NORMAL":17,
						"TEXCOORD_0":18
					},
					"indices":19,
					"material":4
				},
				{
					"attributes":{
						"POSITION":20,
						"NORMAL":21,
						"TEXCOORD_0":22
					},
					"indices":23,
					"material":5
				}
			]
		},
		{
			"name":"Cabeza_Pivvote_bien_Mesh.007",
			"primitives":[
				{
					"attributes":{
						"POSITION":24,
						"NORMAL":25,
						"TEXCOORD_0":26
					},
					"indices":27,
					"material":4
				}
			]
		},
		{
			"name":"Cylinder001_Mesh.005",
			"primitives":[
				{
					"attributes":{
						"POSITION":28,
						"NORMAL":29,
						"TEXCOORD_0":30
					},
					"indices":31,
					"material":6
				},
				{
					"attributes":{
						"POSITION":32,
						"NORMAL":33,
						"TEXCOORD_0":34
					},
					"indices":35,
					"material":7
				}
			]
		},
		{
			"name":"Text001_Mesh.006",
			"primitives":[
				{
					"attributes":{
						"POSITION":36,
						"NORMAL":37
					},
					"indices":38,
					"material":8
				}
			]
		}
	],
	"textures":[
		{
			"sampler":0,
			"source":0
		},
		{
			"sampler":0,
			"source":0
		}
	],
	"images":[
		{
			"mimeType":"image/png",
			"name":"Image",
			"uri":"Image.png"
		}
	],
	"accessors":[
		{
			"bufferView":0,
			"componentType":5126,
			"count":171524,
			"max":[
				-3.5251851081848145,
				2.8525550365448,
				12.491682052612305
			],
			"min":[
				-9.805098533630371,
				-0.49225300550460815,
				-35.051025390625
			],
			"type":"VEC3"
		},
		{
			"bufferView":1,
			"componentType":5126,
			"count":171524,
			"type":"VEC3"
		},
		{
			"bufferView":2,
			"componentType":5126,
			"count":171524,
			"type":"VEC2"
		},
		{
			"bufferView":3,
			"componentType":5125,
			"count":841428,
			"type":"SCALAR"
		},
		{
			"bufferView":4,
			"componentType":5126,
			"count":343371,
			"max":[
				-3.729698896408081,
				3.8430919647216797,
				12.385223388671875
			],
			"min":[
				-6.674767017364502,
				-0.30431899428367615,
				12.303934097290039
			],
			"type":"VEC3"
		},
		{
			"bufferView":5,
			"componentType":5126,
			"count":343371,
			"type":"VEC3"
		},
		{
			"bufferView":6,
			"componentType":5126,
			"count":343371,
			"type":"VEC2"
		},
		{
			"bufferView":7,
			"componentType":5125,
			"count":1878771,
			"type":"SCALAR"
		},
		{
			"bufferView":8,
			"componentType":5126,
			"count":1173,
			"max":[
				-4.9767889976501465,
				3.8430919647216797,
				12.446088790893555
			],
			"min":[
				-5.4871039390563965,
				2.4325690269470215,
				11.330326080322266
			],
			"type":"VEC3"
		},
		{
			"bufferView":9,
			"componentType":5126,
			"count":1173,
			"type":"VEC3"
		},
		{
			"bufferView":10,
			"componentType":5126,
			"count":1173,
			"type":"VEC2"
		},
		{
			"bufferView":11,
			"componentType":5123,
			"count":2859,
			"type":"SCALAR"
		},
		{
			"bufferView":12,
			"componentType":5126,
			"count":8962,
			"max":[
				-4.9689741134643555,
				3.8430919647216797,
				12.385223388671875
			],
			"min":[
				-5.493834018707275,
				2.43676495552063,
				10.759445190429688
			],
			"type":"VEC3"
		},
		{
			"bufferView":13,
			"componentType":5126,
			"count":8962,
			"type":"VEC3"
		},
		{
			"bufferView":14,
			"componentType":5126,
			"count":8962,
			"type":"VEC2"
		},
		{
			"bufferView":15,
			"componentType":5123,
			"count":28635,
			"type":"SCALAR"
		},
		{
			"bufferView":16,
			"componentType":5126,
			"count":19688,
			"max":[
				-2.240056037902832,
				2.964427947998047,
				12.43244743347168
			],
			"min":[
				-10.40988540649414,
				-0.6041290163993835,
				-36.86918640136719
			],
			"type":"VEC3"
		},
		{
			"bufferView":17,
			"componentType":5126,
			"count":19688,
			"type":"VEC3"
		},
		{
			"bufferView":18,
			"componentType":5126,
			"count":19688,
			"type":"VEC2"
		},
		{
			"bufferView":19,
			"componentType":5123,
			"count":91506,
			"type":"SCALAR"
		},
		{
			"bufferView":20,
			"componentType":5126,
			"count":1153,
			"max":[
				-4.998967170715332,
				3.8430919647216797,
				12.385223388671875
			],
			"min":[
				-9.797201156616211,
				-0.06669700145721436,
				-34.68153381347656
			],
			"type":"VEC3"
		},
		{
			"bufferView":21,
			"componentType":5126,
			"count":1153,
			"type":"VEC3"
		},
		{
			"bufferView":22,
			"componentType":5126,
			"count":1153,
			"type":"VEC2"
		},
		{
			"bufferView":23,
			"componentType":5123,
			"count":4110,
			"type":"SCALAR"
		},
		{
			"bufferView":24,
			"componentType":5126,
			"count":341782,
			"max":[
				8.130621910095215,
				32.119964599609375,
				-3.699096918106079
			],
			"min":[
				-2.4859349727630615,
				-29.017406463623047,
				-50.423500061035156
			],
			"type":"VEC3"
		},
		{
			"bufferView":25,
			"componentType":5126,
			"count":341782,
			"type":"VEC3"
		},
		{
			"bufferView":26,
			"componentType":5126,
			"count":341782,
			"type":"VEC2"
		},
		{
			"bufferView":27,
			"componentType":5125,
			"count":1438815,
			"type":"SCALAR"
		},
		{
			"bufferView":28,
			"componentType":5126,
			"count":80,
			"max":[
				-2.154154062271118,
				4.511552810668945,
				12.42148494720459
			],
			"min":[
				-8.41164779663086,
				-1.7459399700164795,
				12.42148494720459
			],
			"type":"VEC3"
		},
		{
			"bufferView":29,
			"componentType":5126,
			"count":80,
			"type":"VEC3"
		},
		{
			"bufferView":30,
			"componentType":5126,
			"count":80,
			"type":"VEC2"
		},
		{
			"bufferView":31,
			"componentType":5123,
			"count":234,
			"type":"SCALAR"
		},
		{
			"bufferView":32,
			"componentType":5126,
			"count":1608,
			"max":[
				-2.1455628871917725,
				4.520143985748291,
				12.894329071044922
			],
			"min":[
				-8.42023754119873,
				-1.754531979560852,
				12.42148494720459
			],
			"type":"VEC3"
		},
		{
			"bufferView":33,
			"componentType":5126,
			"count":1608,
			"type":"VEC3"
		},
		{
			"bufferView":34,
			"componentType":5126,
			"count":1608,
			"type":"VEC2"
		},
		{
			"bufferView":35,
			"componentType":5123,
			"count":8394,
			"type":"SCALAR"
		},
		{
			"bufferView":36,
			"componentType":5126,
			"count":4334,
			"max":[
				-2.1119120121002197,
				2.6786410808563232,
				12.744211196899414
			],
			"min":[
				-2.413037061691284,
				0.05167200043797493,
				12.534158706665039
			],
			"type":"VEC3"
		},
		{
			"bufferView":37,
			"componentType":5126,
			"count":4334,
			"type":"VEC3"
		},
		{
			"bufferView":38,
			"componentType":5123,
			"count":12300,
			"type":"SCALAR"
		}
	],
	"bufferViews":[
		{
			"buffer":0,
			"byteLength":2058288,
			"byteOffset":0,
			"target":34962
		},
		{
			"buffer":0,
			"byteLength":2058288,
			"byteOffset":2058288,
			"target":34962
		},
		{
			"buffer":0,
			"byteLength":1372192,
			"byteOffset":4116576,
			"target":34962
		},
		{
			"buffer":0,
			"byteLength":3365712,
			"byteOffset":5488768,
			"target":34963
		},
		{
			"buffer":0,
			"byteLength":4120452,
			"byteOffset":8854480,
			"target":34962
		},
		{
			"buffer":0,
			"byteLength":4120452,
			"byteOffset":12974932,
			"target":34962
		},
		{
			"buffer":0,
			"byteLength":2746968,
			"byteOffset":17095384,
			"target":34962
		},
		{
			"buffer":0,
			"byteLength":7515084,
			"byteOffset":19842352,
			"target":34963
		},
		{
			"buffer":0,
			"byteLength":14076,
			"byteOffset":27357436,
			"target":34962
		},
		{
			"buffer":0,
			"byteLength":14076,
			"byteOffset":27371512,
			"target":34962
		},
		{
			"buffer":0,
			"byteLength":9384,
			"byteOffset":27385588,
			"target":34962
		},
		{
			"buffer":0,
			"byteLength":5718,
			"byteOffset":27394972,
			"target":34963
		},
		{
			"buffer":0,
			"byteLength":107544,
			"byteOffset":27400692,
			"target":34962
		},
		{
			"buffer":0,
			"byteLength":107544,
			"byteOffset":27508236,
			"target":34962
		},
		{
			"buffer":0,
			"byteLength":71696,
			"byteOffset":27615780,
			"target":34962
		},
		{
			"buffer":0,
			"byteLength":57270,
			"byteOffset":27687476,
			"target":34963
		},
		{
			"buffer":0,
			"byteLength":236256,
			"byteOffset":27744748,
			"target":34962
		},
		{
			"buffer":0,
			"byteLength":236256,
			"byteOffset":27981004,
			"target":34962
		},
		{
			"buffer":0,
			"byteLength":157504,
			"byteOffset":28217260,
			"target":34962
		},
		{
			"buffer":0,
			"byteLength":183012,
			"byteOffset":28374764,
			"target":34963
		},
		{
			"buffer":0,
			"byteLength":13836,
			"byteOffset":28557776,
			"target":34962
		},
		{
			"buffer":0,
			"byteLength":13836,
			"byteOffset":28571612,
			"target":34962
		},
		{
			"buffer":0,
			"byteLength":9224,
			"byteOffset":28585448,
			"target":34962
		},
		{
			"buffer":0,
			"byteLength":8220,
			"byteOffset":28594672,
			"target":34963
		},
		{
			"buffer":0,
			"byteLength":4101384,
			"byteOffset":28602892,
			"target":34962
		},
		{
			"buffer":0,
			"byteLength":4101384,
			"byteOffset":32704276,
			"target":34962
		},
		{
			"buffer":0,
			"byteLength":2734256,
			"byteOffset":36805660,
			"target":34962
		},
		{
			"buffer":0,
			"byteLength":5755260,
			"byteOffset":39539916,
			"target":34963
		},
		{
			"buffer":0,
			"byteLength":960,
			"byteOffset":45295176,
			"target":34962
		},
		{
			"buffer":0,
			"byteLength":960,
			"byteOffset":45296136,
			"target":34962
		},
		{
			"buffer":0,
			"byteLength":640,
			"byteOffset":45297096,
			"target":34962
		},
		{
			"buffer":0,
			"byteLength":468,
			"byteOffset":45297736,
			"target":34963
		},
		{
			"buffer":0,
			"byteLength":19296,
			"byteOffset":45298204,
			"target":34962
		},
		{
			"buffer":0,
			"byteLength":19296,
			"byteOffset":45317500,
			"target":34962
		},
		{
			"buffer":0,
			"byteLength":12864,
			"byteOffset":45336796,
			"target":34962
		},
		{
			"buffer":0,
			"byteLength":16788,
			"byteOffset":45349660,
			"target":34963
		},
		{
			"buffer":0,
			"byteLength":52008,
			"byteOffset":45366448,
			"target":34962
		},
		{
			"buffer":0,
			"byteLength":52008,
			"byteOffset":45418456,
			"target":34962
		},
		{
			"buffer":0,
			"byteLength":24600,
			"byteOffset":45470464,
			"target":34963
		}
	],
	"samplers":[
		{
			"magFilter":9729,
			"minFilter":9987
		}
	],
	"buffers":[
		{
			"byteLength":45495064,
			"uri":"torre-eolica.bin"
		}
	]
}
